<?xml version="1.0" ?><!DOCTYPE svg  PUBLIC '-//W3C//DTD SVG 1.1//EN'  'http://www.w3.org/Graphics/SVG/1.1/DTD/svg11.dtd'><svg enable-background="new 0 0 512 512" height="512px" id="Sunny" version="1.1" viewBox="0 0 512 512" width="512px" xml:space="preserve" xmlns="http://www.w3.org/2000/svg" xmlns:xlink="http://www.w3.org/1999/xlink"><path d="M254.556,433.233c-97.089,0-176.077-78.988-176.077-176.079  c0-97.089,78.988-176.077,176.077-176.077c97.088,0,176.077,78.988,176.077,176.077  C430.633,354.245,351.646,433.233,254.556,433.233z M259.355,2.604c-1.508-0.357-19.696,16.106-18.733,32.762  c0.924,15.968-22.758,35.742-20.15,35.742c1.371,0,18.617-2.611,35.054-2.67c14.826-0.053,29.75,2.447,30.813,2.447  c2.241,0-4.38-15.342-14.825-28.963C258.482,24.926,260.864,2.962,259.355,2.604z M271.516,472.39  c10.444-13.621,17.065-28.964,14.824-28.964c-1.063,0-15.988,2.5-30.813,2.447c-16.438-0.059-33.683-2.67-35.054-2.67  c-2.608,0,21.074,19.772,20.15,35.741c-0.963,16.655,17.225,33.119,18.732,32.762C260.864,511.348,258.482,489.384,271.516,472.39z   M132.333,33.791c-1.485,0.445-9.005,23.797,0.157,37.739c8.785,13.367-1.837,42.332,0.421,41.028  c1.187-0.686,14.816-11.57,29.022-19.839c12.813-7.459,26.99-12.756,27.908-13.287c1.941-1.121-11.464-11.097-27.321-17.67  C142.738,53.559,133.817,33.348,132.333,33.791z M377.756,434.559c2.235-17.019,0.297-33.617-1.644-32.496  c-0.919,0.53-12.597,10.16-25.461,17.525c-14.267,8.169-30.507,14.53-31.692,15.215c-2.26,1.305,28.137,6.588,35.32,20.879  c7.493,14.906,31.477,20.069,32.604,19.005C388.011,473.622,374.968,455.791,377.756,434.559z M37.025,124.829  c-1.064,1.127,4.1,25.111,19.005,32.605c14.292,7.183,19.575,37.579,20.879,35.321c0.685-1.188,7.046-17.428,15.213-31.693  c7.368-12.866,16.996-24.542,17.526-25.461c1.121-1.941-15.477-3.878-32.496-1.643C55.92,136.746,38.089,123.702,37.025,124.829z   M449.952,349.191c-6.574-15.854-16.551-29.262-17.672-27.319c-0.53,0.919-5.829,15.096-13.288,27.907  c-8.269,14.207-19.153,27.837-19.838,29.021c-1.307,2.26,27.66-8.361,41.026,0.422c13.944,9.162,37.295,1.643,37.739,0.155  C478.365,377.896,458.153,368.975,449.952,349.191z M0.005,251.324c-0.357,1.509,16.107,19.697,32.762,18.734  c15.968-0.926,35.742,22.756,35.742,20.148c0-1.37-2.612-18.615-2.671-35.054c-0.053-14.826,2.448-29.751,2.447-30.813  c0-2.242-15.341,4.38-28.962,14.826C22.327,252.196,0.364,249.816,0.005,251.324z M469.792,239.165  c-13.621-10.444-28.965-17.067-28.965-14.824c0,1.061,2.5,15.987,2.447,30.813c-0.06,16.437-2.669,33.683-2.669,35.052  c-0.003,2.608,19.772-21.071,35.739-20.147c16.658,0.963,33.12-17.227,32.761-18.734  C508.749,249.816,486.787,252.196,469.792,239.165z M431.96,133.958c-17.018-2.234-33.617-0.298-32.494,1.644  c0.528,0.919,10.156,12.595,17.523,25.462c8.17,14.263,14.529,30.505,15.215,31.69c1.304,2.26,6.588-28.135,20.88-35.319  c14.907-7.496,20.068-31.479,19.004-32.606C471.023,123.703,453.194,136.747,431.96,133.958z M31.193,379.381  c0.445,1.486,23.798,9.006,37.739-0.156c13.367-8.785,42.332,1.838,41.028-0.42c-0.685-1.188-11.57-14.816-19.84-29.021  c-7.459-12.813-12.755-26.99-13.286-27.909c-1.122-1.94-11.096,11.464-17.669,27.321C50.96,368.977,30.75,377.896,31.193,379.381z   M122.231,474.688c1.128,1.063,25.111-4.102,32.604-19.007c7.183-14.292,37.58-19.573,35.32-20.877  c-1.185-0.686-17.427-7.046-31.692-15.213c-12.866-7.367-24.541-16.997-25.459-17.525c-1.942-1.121-3.879,15.476-1.643,32.494  C134.148,455.794,121.105,473.624,122.231,474.688z M346.595,61.763c-15.855,6.574-29.264,16.551-27.32,17.671  c0.919,0.532,15.096,5.83,27.907,13.288c14.207,8.268,27.836,19.153,29.021,19.837c2.26,1.306-8.361-27.66,0.422-41.026  c9.163-13.945,1.642-37.296,0.155-37.739C375.297,33.35,366.378,53.56,346.595,61.763z" enable-background="new    " fill="#272525" opacity="0.4"/><linearGradient gradientTransform="matrix(1 0 0 -1 -41.6602 348.04)" gradientUnits="userSpaceOnUse" id="SVGID_1_" x1="93.0542" x2="509.9337" y1="240.3433" y2="-58.7893"><stop offset="0" style="stop-color:#F7CA18"/><stop offset="1" style="stop-color:#F5AB35"/></linearGradient><path d="M257.443,430.924c-97.089,0-176.077-78.988-176.077-176.079c0-97.089,78.988-176.077,176.077-176.077  c97.09,0,176.076,78.988,176.076,176.077C433.521,351.936,354.533,430.924,257.443,430.924z M262.243,0.294  c-1.509-0.357-19.697,16.105-18.733,32.761c0.924,15.968-22.758,35.742-20.15,35.742c1.371,0,18.616-2.611,35.054-2.67  c14.825-0.053,29.751,2.447,30.813,2.447c2.241,0-4.379-15.342-14.824-28.963C261.371,22.616,263.752,0.652,262.243,0.294z   M274.402,470.08c10.445-13.621,17.064-28.964,14.824-28.964c-1.063,0-15.987,2.5-30.813,2.447  c-16.438-0.06-33.683-2.671-35.054-2.671c-2.608,0,21.074,19.773,20.15,35.741c-0.964,16.656,17.226,33.119,18.733,32.762  C263.752,509.038,261.371,487.074,274.402,470.08z M135.22,31.481c-1.485,0.444-9.005,23.796,0.157,37.739  c8.785,13.367-1.837,42.332,0.421,41.028c1.188-0.685,14.816-11.569,29.022-19.839c12.813-7.458,26.99-12.756,27.909-13.287  c1.941-1.121-11.465-11.097-27.321-17.671C145.625,51.249,136.705,31.038,135.22,31.481z M380.644,432.248  c2.235-17.018,0.298-33.616-1.644-32.496c-0.919,0.531-12.596,10.159-25.462,17.525c-14.265,8.17-30.505,14.53-31.692,15.215  c-2.259,1.305,28.138,6.589,35.321,20.879c7.493,14.906,31.476,20.069,32.604,19.006  C390.898,471.313,377.854,453.481,380.644,432.248z M39.913,122.519c-1.064,1.127,4.1,25.111,19.005,32.605  c14.292,7.183,19.574,37.579,20.879,35.321c0.684-1.188,7.045-17.428,15.213-31.693c7.368-12.866,16.996-24.542,17.526-25.461  c1.121-1.941-15.477-3.877-32.496-1.643C58.808,134.436,40.977,121.393,39.913,122.519z M452.84,346.882  c-6.575-15.854-16.551-29.262-17.672-27.319c-0.531,0.92-5.829,15.096-13.288,27.908c-8.269,14.206-19.153,27.836-19.838,29.021  c-1.307,2.259,27.66-8.362,41.026,0.422c13.943,9.162,37.296,1.643,37.739,0.154C481.253,375.585,461.041,366.665,452.84,346.882z   M2.893,249.014C2.536,250.522,19,268.711,35.654,267.747c15.968-0.925,35.742,22.758,35.742,20.149  c0-1.369-2.612-18.614-2.671-35.054c-0.052-14.826,2.448-29.751,2.447-30.813c0-2.242-15.341,4.38-28.962,14.825  C25.214,249.887,3.251,247.506,2.893,249.014z M472.68,236.855c-13.621-10.444-28.965-17.066-28.965-14.824  c0,1.061,2.5,15.987,2.447,30.813c-0.06,16.438-2.669,33.684-2.669,35.053c-0.002,2.607,19.772-21.072,35.74-20.148  c16.657,0.963,33.119-17.226,32.761-18.735C511.637,247.506,489.675,249.886,472.68,236.855z M434.847,131.648  c-17.017-2.234-33.615-0.298-32.494,1.644c0.529,0.919,10.156,12.596,17.524,25.462c8.17,14.263,14.529,30.505,15.214,31.69  c1.305,2.26,6.589-28.135,20.88-35.319c14.907-7.496,20.068-31.478,19.005-32.606C473.911,121.394,456.082,134.437,434.847,131.648z   M34.081,377.07c0.445,1.486,23.797,9.006,37.738-0.156c13.367-8.785,42.333,1.838,41.028-0.42  c-0.684-1.188-11.569-14.814-19.84-29.021c-7.458-12.813-12.755-26.988-13.286-27.908c-1.122-1.94-11.096,11.465-17.669,27.321  C53.848,366.667,33.637,375.586,34.081,377.07z M125.118,472.379c1.129,1.063,25.111-4.102,32.604-19.007  c7.183-14.291,37.58-19.573,35.321-20.876c-1.186-0.687-17.427-7.046-31.692-15.214c-12.866-7.367-24.541-16.997-25.459-17.526  c-1.942-1.119-3.878,15.477-1.643,32.495C137.035,453.484,123.993,471.314,125.118,472.379z M349.481,59.453  c-15.855,6.574-29.264,16.551-27.32,17.671c0.919,0.531,15.095,5.829,27.908,13.288c14.207,8.268,27.836,19.153,29.021,19.838  c2.259,1.305-8.361-27.66,0.422-41.026c9.163-13.946,1.643-37.296,0.155-37.74C378.184,31.04,369.266,51.25,349.481,59.453z" fill="url(#SVGID_1_)"/></svg>