<?xml version="1.0" ?><!DOCTYPE svg  PUBLIC '-//W3C//DTD SVG 1.1//EN'  'http://www.w3.org/Graphics/SVG/1.1/DTD/svg11.dtd'><svg enable-background="new 0 0 512 512" height="512px" id="Overcast" version="1.1" viewBox="0 0 512 512" width="512px" xml:space="preserve" xmlns="http://www.w3.org/2000/svg" xmlns:xlink="http://www.w3.org/1999/xlink"><path d="M405.84,201.114c-12.356,0-24.202,2.179-35.171,6.17  c-17.611-55.97-76.229-97.09-145.845-97.09c-81.672,0-148.212,56.596-151.147,127.377C31.996,243.568,0,278.615,0,320.967  c0,44.945,36.035,81.664,81.441,84.162v0.236h320.776v-0.182c1.205,0.041,2.409,0.09,3.623,0.09  c56.605,0,102.492-45.705,102.492-102.08C508.332,246.816,462.445,201.114,405.84,201.114z" enable-background="new    " fill="#272525" opacity="0.4"/><linearGradient gradientTransform="matrix(1 0 0 -1 -41.6602 348.04)" gradientUnits="userSpaceOnUse" id="SVGID_1_" x1="73.0215" x2="524.8087" y1="164.9585" y2="-68.0367"><stop offset="0" style="stop-color:#ECF0F1"/><stop offset="0.8999" style="stop-color:#C2C8CB"/><stop offset="1" style="stop-color:#BDC3C7"/></linearGradient><path d="M409.508,197.555c-12.355,0-24.201,2.179-35.17,6.17c-17.612-55.97-76.229-97.09-145.845-97.09  c-81.672,0-148.212,56.597-151.147,127.377c-41.681,5.997-73.677,41.044-73.677,83.396c0,44.945,36.035,81.664,81.441,84.162v0.234  h320.774v-0.181c1.205,0.041,2.409,0.09,3.623,0.09c56.606,0,102.492-45.705,102.492-102.08  C512,243.257,466.114,197.555,409.508,197.555z" fill="url(#SVGID_1_)"/></svg>