<?xml version="1.0" ?><!DOCTYPE svg  PUBLIC '-//W3C//DTD SVG 1.1//EN'  'http://www.w3.org/Graphics/SVG/1.1/DTD/svg11.dtd'><svg enable-background="new 0 0 512 512" height="512px" id="Heavy_Rain" version="1.1" viewBox="0 0 512 512" width="512px" xml:space="preserve" xmlns="http://www.w3.org/2000/svg" xmlns:xlink="http://www.w3.org/1999/xlink"><g><path d="M405.84,119.377c-12.356,0-24.202,2.179-35.171,6.17   c-17.611-55.97-76.229-97.09-145.845-97.09c-81.672,0-148.212,56.596-151.147,127.377C31.996,161.831,0,196.878,0,239.23   c0,44.944,36.035,81.663,81.441,84.161v0.236h320.776v-0.182c1.205,0.041,2.409,0.091,3.623,0.091   c56.605,0,102.492-45.704,102.492-102.08C508.332,165.079,462.445,119.377,405.84,119.377z" enable-background="new    " fill="#272525" opacity="0.4"/><linearGradient gradientTransform="matrix(1 0 0 -1 -41.6602 348.04)" gradientUnits="userSpaceOnUse" id="SVGID_1_" x1="73.0215" x2="524.8092" y1="246.6953" y2="13.6999"><stop offset="0" style="stop-color:#ECF0F1"/><stop offset="0.8999" style="stop-color:#C2C8CB"/><stop offset="1" style="stop-color:#BDC3C7"/></linearGradient><path d="M409.508,115.818c-12.355,0-24.201,2.179-35.17,6.17c-17.612-55.97-76.229-97.09-145.845-97.09   c-81.672,0-148.212,56.596-151.147,127.377c-41.681,5.997-73.677,41.043-73.677,83.395c0,44.945,36.035,81.664,81.441,84.162v0.234   h320.774v-0.181c1.205,0.041,2.409,0.091,3.623,0.091c56.605,0,102.492-45.703,102.492-102.08   C512,161.52,466.113,115.818,409.508,115.818z" fill="url(#SVGID_1_)"/></g><path d="M59.266,420.305c-0.896,1.595-2.933,2.165-4.527,1.271  l-13.529-7.599c-1.594-0.896-2.166-2.933-1.271-4.526l41.943-74.692c0.895-1.596,2.933-2.167,4.527-1.271l13.529,7.599  c1.594,0.896,2.167,2.933,1.271,4.526L59.266,420.305z M162.048,348.328c0.895-1.596,0.322-3.633-1.272-4.527l-13.53-7.594  c-1.595-0.896-3.631-0.324-4.526,1.271L65.773,474.557c-0.895,1.597-0.323,3.634,1.272,4.527l13.53,7.594  c1.595,0.896,3.632,0.324,4.527-1.271L162.048,348.328z M224.165,351.803c0.894-1.595,0.323-3.632-1.271-4.527l-13.529-7.598  c-1.594-0.895-3.631-0.322-4.527,1.271l-41.943,74.691c-0.895,1.596-0.323,3.633,1.271,4.527l13.529,7.599  c1.594,0.896,3.632,0.323,4.527-1.271L224.165,351.803z M286.451,348.328c0.895-1.596,0.322-3.633-1.271-4.527l-13.531-7.594  c-1.594-0.896-3.631-0.324-4.526,1.271l-76.945,137.077c-0.895,1.597-0.323,3.634,1.272,4.527l13.53,7.594  c1.595,0.896,3.632,0.324,4.527-1.271L286.451,348.328z M348.568,348.332c0.894-1.596,0.321-3.632-1.273-4.527l-13.529-7.598  c-1.593-0.896-3.63-0.324-4.524,1.271l-41.943,74.691c-0.896,1.596-0.323,3.632,1.271,4.527l13.529,7.598  c1.594,0.896,3.631,0.324,4.526-1.271L348.568,348.332z M413.271,342.229c0.894-1.595,0.321-3.631-1.272-4.526l-13.53-7.595  c-1.595-0.895-3.632-0.322-4.526,1.272l-76.945,137.078c-0.896,1.596-0.322,3.633,1.272,4.527l13.528,7.594  c1.596,0.896,3.633,0.323,4.527-1.271L413.271,342.229z" enable-background="new    " fill="#272525" opacity="0.4"/><linearGradient gradientTransform="matrix(1 0 0 -1 -41.6602 348.04)" gradientUnits="userSpaceOnUse" id="SVGID_2_" x1="110.9326" x2="470.7369" y1="18.9521" y2="-146.2473"><stop offset="0" style="stop-color:#1E8BC3"/><stop offset="0.6936" style="stop-color:#237CB2"/><stop offset="1" style="stop-color:#2574A9"/></linearGradient><path d="M61.743,420.305c-0.895,1.595-2.933,2.165-4.527,1.271l-13.529-7.599  c-1.594-0.896-2.167-2.933-1.271-4.526l41.943-74.692c0.896-1.596,2.933-2.167,4.527-1.271l13.529,7.599  c1.594,0.896,2.166,2.933,1.271,4.526L61.743,420.305z M164.525,348.328c0.895-1.596,0.322-3.633-1.272-4.527l-13.53-7.594  c-1.595-0.896-3.632-0.324-4.527,1.271L68.251,474.557c-0.895,1.597-0.323,3.634,1.272,4.527l13.53,7.594  c1.595,0.896,3.632,0.324,4.527-1.271L164.525,348.328z M226.643,351.803c0.894-1.595,0.322-3.632-1.272-4.527l-13.529-7.598  c-1.594-0.895-3.631-0.322-4.527,1.271l-41.943,74.691c-0.895,1.596-0.323,3.633,1.271,4.527l13.529,7.599  c1.594,0.896,3.632,0.323,4.527-1.271L226.643,351.803z M288.93,348.328c0.894-1.596,0.321-3.633-1.272-4.527l-13.53-7.594  c-1.595-0.896-3.632-0.324-4.527,1.271l-76.945,137.077c-0.895,1.597-0.323,3.634,1.272,4.527l13.53,7.594  c1.595,0.896,3.632,0.324,4.527-1.271L288.93,348.328z M351.045,348.332c0.896-1.596,0.323-3.632-1.271-4.527l-13.529-7.598  c-1.593-0.896-3.63-0.324-4.526,1.271l-41.942,74.691c-0.896,1.596-0.323,3.632,1.271,4.527l13.528,7.598  c1.594,0.896,3.632,0.324,4.525-1.271L351.045,348.332z M415.748,342.229c0.894-1.595,0.322-3.631-1.273-4.526l-13.528-7.595  c-1.596-0.895-3.632-0.322-4.527,1.272l-76.945,137.078c-0.895,1.596-0.321,3.633,1.273,4.527l13.528,7.594  c1.596,0.896,3.633,0.323,4.526-1.271L415.748,342.229z" fill="url(#SVGID_2_)"/></svg>